<?xml version="1.0" encoding="utf-8"?>
<!-- Generator: Adobe Illustrator 16.0.0, SVG Export Plug-In . SVG Version: 6.00 Build 0)  -->
<!DOCTYPE svg PUBLIC "-//W3C//DTD SVG 1.1//EN" "http://www.w3.org/Graphics/SVG/1.1/DTD/svg11.dtd">
<svg version="1.1" id="Layer_1" xmlns="http://www.w3.org/2000/svg" xmlns:xlink="http://www.w3.org/1999/xlink" x="0px" y="0px"
	 width="100px" height="100px" viewBox="0 0 100 100" enable-background="new 0 0 100 100" xml:space="preserve">
<g>
	<rect x="1.076" y="71.895" width="17.838" height="5.406"/>
	<rect x="1.076" y="64.867" width="17.838" height="5.408"/>
	<rect x="1.076" y="57.84" width="17.838" height="5.408"/>
	<rect x="1.076" y="50.813" width="17.838" height="5.405"/>
	<rect x="1.076" y="43.785" width="17.838" height="5.404"/>
	<rect x="21.077" y="71.895" width="17.84" height="5.406"/>
	<rect x="21.077" y="64.867" width="17.84" height="5.408"/>
	<rect x="21.077" y="57.84" width="17.84" height="5.408"/>
	<rect x="41.08" y="71.895" width="17.84" height="5.406"/>
	<rect x="41.08" y="64.867" width="17.84" height="5.408"/>
	<rect x="41.08" y="57.84" width="17.84" height="5.408"/>
	<rect x="41.08" y="50.813" width="17.84" height="5.405"/>
	<rect x="41.08" y="43.785" width="17.84" height="5.404"/>
	<rect x="41.08" y="36.756" width="17.84" height="5.406"/>
	<rect x="41.08" y="29.729" width="17.84" height="5.407"/>
	<rect x="61.081" y="71.895" width="17.841" height="5.406"/>
	<rect x="61.081" y="64.867" width="17.841" height="5.408"/>
	<rect x="61.081" y="57.84" width="17.841" height="5.408"/>
	<rect x="61.081" y="50.813" width="17.841" height="5.405"/>
	<rect x="61.081" y="43.785" width="17.841" height="5.404"/>
	<rect x="81.084" y="71.895" width="17.84" height="5.406"/>
	<rect x="81.084" y="64.867" width="17.84" height="5.408"/>
	<rect x="81.084" y="57.838" width="17.84" height="5.406"/>
	<rect x="81.084" y="50.812" width="17.84" height="5.407"/>
	<rect x="81.084" y="43.783" width="17.84" height="5.407"/>
	<rect x="81.084" y="36.757" width="17.84" height="5.404"/>
	<rect x="81.084" y="29.728" width="17.84" height="5.404"/>
	<rect x="81.084" y="22.699" width="17.84" height="5.406"/>
</g>
</svg>
